# xmcd
# Copyright (C) 1995-1998 Ti Kan
#
# Track frame offsets:
#       150
#       3531
#       16401
#       30866
#       45385
#       47663
#       59557
#       98250
#       118266
#       139341
#       142188
#       152429
#       159796
#       169352
#       180927
#       183968
#       186152
#       212175
#       221483
#       224297
#       245547
#       259534
#       292960
#
# Disc length: 4214 seconds
#
# Revision: 0
# Processed by: cddbd v1.5.2PL0 Copyright (c) Steve Scherf et al.
# Submitted via: CD-Import v1.0
#
DISCID=3e107417
DTITLE=Neil Young - Live At Canterburry
DYEAR=68
DGENRE=
TTITLE0=01 Intro
TTITLE1=02 On The Way Home
TTITLE2=03 Songwriting Rap
TTITLE3=04 Mr Soul
TTITLE4=05 Recording Rap
TTITLE5=06 Expecting To Fly
TTITLE6=07 The Last Trip To Tulsa
TTITLE7=08 Bookstore Rap
TTITLE8=09 The Loner
TTITLE9=10 I Used To Rap
TTITLE10=11 Birds
TTITLE11=12 Winterlong and Out Of Mind Intro
TTITLE12=13 Out Of My Mind
TTITLE13=14 If I Could Have Her Tonight
TTITLE14=15 Classical Gas Rap
TTITLE15=16 Sugar Mountain Intro
TTITLE16=17 Sugar Mountain
TTITLE17=18 I've Been Waiting For You
TTITLE18=19 Songs Rap
TTITLE19=20 Nowadays Clancy Can't Even Sing
TTITLE20=21 Tuning Rap &old Lady Intro
TTITLE21=22 The Old Laughing Lady
TTITLE22=23 Broken Arrow
EXTD=
EXTT0=
EXTT1=
EXTT2=
EXTT3=
EXTT4=
EXTT5=
EXTT6=
EXTT7=
EXTT8=
EXTT9=
EXTT10=
EXTT11=
EXTT12=
EXTT13=
EXTT14=
EXTT15=
EXTT16=
EXTT17=
EXTT18=
EXTT19=
EXTT20=
EXTT21=
EXTT22=
PLAYORDER=
